
<svg
   width="274.98898"
   height="45.852245"
   viewBox="0 0 274.98899 45.852245"
   fill="none"
   version="1.1"
   id="svg14"
   xmlns="http://www.w3.org/2000/svg"
   xmlns:svg="http://www.w3.org/2000/svg">
  <defs
     id="defs14" />
  <g
     id="g41"
     transform="translate(-28.874804,-86.895135)">
    <path
       d="m 242.0738,132.01148 v -5.283 l -0.446,-1.1573 v -9.4591 c 0,-1.6771 -0.461,-2.9853 -1.383,-3.9245 -0.892,-0.9392 -2.275,-1.4088 -4.149,-1.4088 -1.279,0 -2.543,0.2348 -3.792,0.7044 -1.219,0.436 -2.26,1.0398 -3.123,1.8113 l -2.498,-5.4843 c 1.309,-1.0398 2.885,-1.8448 4.729,-2.4151 1.844,-0.5702 3.717,-0.8553 5.621,-0.8553 3.658,0 6.498,0.9727 8.52,2.9182 2.023,1.9455 3.034,4.9812 3.034,9.1069 v 15.4466 z m -7.316,0.4025 c -1.874,0 -3.48,-0.3522 -4.818,-1.0566 -1.339,-0.7379 -2.365,-1.7275 -3.079,-2.9686 -0.713,-1.241 -1.07,-2.6331 -1.07,-4.1761 0,-1.61 0.342,-3.0188 1.026,-4.2264 0.714,-1.2075 1.829,-2.1467 3.346,-2.8176 1.516,-0.7044 3.494,-1.0566 5.933,-1.0566 h 6.379 v 4.5786 h -5.621 c -1.635,0 -2.766,0.3019 -3.39,0.9057 -0.595,0.6038 -0.892,1.3585 -0.892,2.2641 0,1.0063 0.342,1.8114 1.026,2.4151 0.714,0.5703 1.68,0.8554 2.899,0.8554 1.16,0 2.201,-0.3019 3.123,-0.9057 0.922,-0.6373 1.591,-1.5597 2.008,-2.7673 l 1.07,3.6227 c -0.505,1.7442 -1.427,3.0692 -2.765,3.9748 -1.339,0.9057 -3.064,1.3585 -5.175,1.3585 z"
       fill="#000000"
       id="path1" />
    <path
       d="m 217.7798,132.41398 c -2.825,0 -5.026,-0.805 -6.602,-2.4151 -1.577,-1.6436 -2.365,-4.0755 -2.365,-7.2956 V 98.954877 h 6.959 v 23.647803 c 0,1.1404 0.268,2.0293 0.804,2.6666 0.535,0.6038 1.263,0.9057 2.185,0.9057 1.101,0 2.038,-0.3354 2.811,-1.0063 l 1.874,5.5346 c -0.714,0.5702 -1.577,1.0063 -2.588,1.3082 -0.981,0.2683 -2.007,0.4025 -3.078,0.4025 z m -12.67,-20.8302 v -6.0377 h 16.64 v 6.0377 z"
       fill="#000000"
       id="path2" />
    <path
       d="m 191.7088,104.53978 c 1.903,0 3.599,0.4361 5.086,1.3082 1.516,0.8385 2.706,2.1467 3.569,3.9245 0.862,1.7442 1.293,3.9916 1.293,6.7421 v 15.4969 h -6.959 v -14.2893 c 0,-2.1803 -0.431,-3.7904 -1.294,-4.8302 -0.832,-1.0398 -2.022,-1.5598 -3.569,-1.5598 -1.1,0 -2.096,0.2684 -2.989,0.8051 -0.862,0.5031 -1.546,1.2914 -2.052,2.3648 -0.475,1.0733 -0.713,2.4486 -0.713,4.1257 v 13.3837 h -6.96 v -27.0692 h 6.647 v 7.4969 l -1.249,-2.2642 c 0.863,-1.8113 2.097,-3.2033 3.703,-4.1761 1.606,-0.9727 3.435,-1.4591 5.487,-1.4591 z"
       fill="#000000"
       id="path3" />
    <path
       d="m 160.8888,132.41398 c -2.736,0 -5.145,-0.6038 -7.227,-1.8113 -2.052,-1.2076 -3.643,-2.8512 -4.773,-4.9308 -1.13,-2.1132 -1.695,-4.5116 -1.695,-7.195 0,-2.717 0.55,-5.1153 1.65,-7.195 1.13,-2.1132 2.662,-3.7568 4.595,-4.9308 1.933,-1.2075 4.119,-1.8113 6.558,-1.8113 2.349,0 4.461,0.5702 6.335,1.7107 1.903,1.1069 3.405,2.717 4.505,4.8302 1.101,2.0796 1.651,4.5786 1.651,7.4968 0,0.3019 -0.015,0.6541 -0.045,1.0566 -0.029,0.369 -0.059,0.7212 -0.089,1.0566 h -19.495 v -4.5786 h 15.837 l -2.677,1.3585 c 0,-1.4088 -0.252,-2.6331 -0.758,-3.6729 -0.506,-1.0399 -1.205,-1.8449 -2.097,-2.4151 -0.892,-0.6038 -1.933,-0.9057 -3.122,-0.9057 -1.19,0 -2.246,0.3019 -3.168,0.9057 -0.892,0.5702 -1.591,1.392 -2.097,2.4654 -0.505,1.0398 -0.758,2.2809 -0.758,3.7232 v 1.2076 c 0,1.4759 0.283,2.7841 0.848,3.9245 0.594,1.1069 1.412,1.9623 2.453,2.566 1.071,0.5703 2.32,0.8554 3.748,0.8554 1.278,0 2.394,-0.218 3.345,-0.6541 0.982,-0.4361 4.703,0.8721 5.506,0 v 4.9922 l -3.551,1.4634 c 0,0 -3.308,0.4878 -5.479,0.4878 z"
       fill="#000000"
       id="path4" />
    <path
       d="m 135.5598,132.01148 v -27.0692 h 6.959 v 27.0692 z"
       fill="#000000"
       id="path5" />
    <path
       d="m 118.9451,132.41398 c -2.1115,0 -3.9257,-0.5032 -5.4425,-1.5095 -1.5168,-1.0062 -2.6767,-2.5324 -3.4797,-4.5786 -0.803,-2.0796 -1.2045,-4.696 -1.2045,-7.849 0,-3.1866 0.4164,-5.803 1.2491,-7.8491 0.8625,-2.0461 2.0522,-3.5723 3.5689,-4.5786 1.5168,-1.0063 3.2864,-1.5094 5.3087,-1.5094 2.2603,0 4.2827,0.5702 6.0671,1.7107 1.8142,1.1404 3.2418,2.7505 4.2826,4.8301 1.071,2.0797 1.606,4.5451 1.606,7.3963 0,2.8176 -0.535,5.2662 -1.606,7.3459 -1.0408,2.0796 -2.4684,3.7065 -4.2826,4.8805 -1.7844,1.1404 -3.8068,1.7107 -6.0671,1.7107 z m -14.1863,-0.4025 V 94.678081 h 6.9594 v 15.748499 l -0.4462,8 0.1339,8.0503 v 5.5346 z m 12.9818,-6.0378 c 1.1599,0 2.186,-0.3019 3.0782,-0.9056 0.922,-0.6038 1.6506,-1.4592 2.1859,-2.5661 0.5651,-1.1404 0.8477,-2.4822 0.8477,-4.0251 0,-1.5765 -0.2826,-2.9183 -0.8477,-4.0252 -0.5353,-1.1069 -1.2639,-1.9622 -2.1859,-2.566 -0.8922,-0.6038 -1.9183,-0.9057 -3.0782,-0.9057 -1.1598,0 -2.2008,0.3019 -3.1227,0.9057 -0.922,0.6038 -1.6506,1.4591 -2.186,2.566 -0.5353,1.1069 -0.803,2.4487 -0.803,4.0252 0,1.5429 0.2677,2.8847 0.803,4.0251 0.5354,1.1069 1.264,1.9623 2.186,2.5661 0.9219,0.6037 1.9629,0.9056 3.1227,0.9056 z"
       fill="#000000"
       id="path6" />
    <path
       d="m 88.7065,104.53978 c 1.9034,0 3.5838,0.4361 5.0411,1.3082 1.487,0.8385 2.6469,2.1467 3.4796,3.9245 0.8625,1.7442 1.2938,3.9916 1.2938,6.7421 v 15.4969 h -6.9594 v -14.2893 c 0,-2.1803 -0.4015,-3.7904 -1.2045,-4.8302 -0.8029,-1.0398 -1.9331,-1.5598 -3.3904,-1.5598 -1.0112,0 -1.9183,0.2684 -2.7213,0.8051 -0.803,0.5031 -1.4275,1.2746 -1.8736,2.3144 -0.4461,1.0399 -0.6692,2.3648 -0.6692,3.9749 v 13.5849 h -6.9593 v -14.2893 c 0,-2.1803 -0.4015,-3.7904 -1.2045,-4.8302 -0.7733,-1.0398 -1.8885,-1.5598 -3.3458,-1.5598 -1.0112,0 -1.9183,0.2684 -2.7213,0.8051 -0.803,0.5031 -1.4276,1.2746 -1.8737,2.3144 -0.4461,1.0399 -0.6691,2.3648 -0.6691,3.9749 v 13.5849 h -6.9594 v -27.0692 h 6.6471 v 7.3962 l -1.2491,-2.1635 c 0.8327,-1.8449 2.0075,-3.2369 3.5243,-4.1761 1.5465,-0.9727 3.3012,-1.4591 5.2641,-1.4591 2.2008,0 4.119,0.6373 5.7548,1.9119 1.6655,1.2411 2.7659,3.1531 3.3012,5.7359 l -2.4536,-0.7547 c 0.803,-2.1132 2.0818,-3.7904 3.8365,-5.0315 1.7845,-1.2411 3.8217,-1.8616 6.1117,-1.8616 z"
       fill="#000000"
       id="path7" />
    <path
       d="m 45.1578,132.01148 v -5.283 l -0.4461,-1.1573 v -9.4591 c 0,-1.6771 -0.461,-2.9853 -1.3829,-3.9245 -0.8922,-0.9392 -2.2752,-1.4088 -4.148896,-1.4088 -1.2788,0 -2.54278,0.2348 -3.79189,0.7044 -1.21937,0.436 -2.26029,1.0398 -3.12277,1.8113 l -2.49822,-5.4843 c 1.30859,-1.0398 2.88485,-1.8448 4.72877,-2.4151 1.84392,-0.5702 3.71758,-0.8553 5.62101,-0.8553 3.658096,0 6.498296,0.9727 8.520696,2.9182 2.0223,1.9455 3.0335,4.9812 3.0335,9.1069 v 15.4466 z m -7.316186,0.4025 c -1.87366,0 -3.47966,-0.3522 -4.81799,-1.0566 -1.33833,-0.7379 -2.36438,-1.7275 -3.07816,-2.9686 -0.713772,-1.241 -1.07066,-2.6331 -1.07066,-4.1761 0,-1.61 0.342018,-3.0188 1.02605,-4.2264 0.71378,-1.2075 1.82906,-2.1467 3.34583,-2.8176 1.51677,-0.7044 3.49453,-1.0566 5.93322,-1.0566 H 45.5593 v 4.5786 h -5.620996 c -1.63571,0 -2.76585,0.3019 -3.39041,0.9057 -0.59481,0.6038 -0.89222,1.3585 -0.89222,2.2641 0,1.0063 0.34202,1.8114 1.02606,2.4151 0.71378,0.5703 1.68035,0.8554 2.89967,0.8554 1.1599,0 2.200896,-0.3019 3.122796,-0.9057 0.922,-0.6373 1.5911,-1.5597 2.0075,-2.7673 l 1.0707,3.6227 c -0.5056,1.7442 -1.4276,3.0692 -2.7659,3.9748 -1.3383,0.9057 -3.063296,1.3585 -5.174886,1.3585 z"
       fill="#000000"
       id="path8" />
    <path
       d="m 277.6778,132.74738 10.751,-15.8994 -0.134,4.327 -10.305,-15.4968 h 7.807 l 6.513,10.1132 -2.944,0.1006 6.736,-10.2138 h 7.406 l -10.35,15.3459 v -4.2264 l 10.706,15.9497 h -7.896 l -6.825,-10.7673 2.9,0.4528 -6.781,10.3145 z"
       fill="#4b9968"
       id="path9" />
    <path
       d="m 267.2928,132.74738 v -27.0692 h 6.959 v 27.0692 z"
       fill="#4b9968"
       id="path10" />
    <path
       d="M 253.8748,132.74728 V 95.413981 h 6.959 v 37.333299 z"
       fill="#4b9968"
       id="path11" />
    <g
       id="g29"
       transform="translate(28.874804,83.413981)">
      <path
         d="M 160.022,27.7401 C 158.591,26.6556 154.199,22.5103 152.907,10.229 152.24,7.62574 149.859,3.19895 142,3.49531 c 0,0 -9.092,0.93163 -10.916,0.70273 l -0.097,0.35327 c 2.543,0.18033 12.229,0.87953 14.013,3.44399 5.925,8.5153 4.205,11.2145 9.983,17.3231 1.856,1.9618 4.79,2.6989 5.039,2.4217 z"
         fill="#dd6d28"
         id="path12" />
      <path
         d="m 159.831,27.5822 c -1.574,-0.8636 -6.524,-4.322 -9.599,-16.2824 -1.041,-2.47759 -3.816,-5.8738 -11.548,-4.43116 -3.019,0.56334 -9.085,1.6166 -10.922,1.65681 l -0.044,0.36368 c 2.542,-0.19355 11.876,-0.39826 14.016,1.87767 7.107,7.5572 6.149,9.9589 12.759,15.1567 2.122,1.6692 5.132,1.9694 5.338,1.6587 z"
         fill="#5db482"
         id="path13" />
      <path
         d="m 159.994,27.8058 c -1.745,-0.672 -7.318,-3.5005 -11.887,-14.7085 -1.369,-2.2808 -4.658,-5.27022 -12.588,-3.0957 -3.096,0.8491 -9.326,2.4794 -11.244,2.7046 l -0.006,0.3548 c 2.639,-0.4445 12.386,-1.5893 14.884,0.3856 8.291,6.5576 7.56,8.9681 15.066,13.3035 2.41,1.3923 5.595,1.3759 5.775,1.0557 z"
         fill="#449062"
         id="path14" />
    </g>
  </g>
</svg>
